<svg xmlns="http://www.w3.org/2000/svg" viewBox="0 0 256.15 203.96"><title>Asset 1</title><g id="Layer_2" data-name="Layer 2"><g id="Layer_1-2" data-name="Layer 1"><path d="M50.72,38.61l2.56-3.44c.21-.28.42-.57.61-.87.36-.55.73-1.1,1.07-1.67a2.82,2.82,0,0,1,1.22-1.37c.33-.15.54-.64.75-1,.8-1.43,1.57-2.89,2.38-4.31a7.06,7.06,0,0,1,.83-1,27.07,27.07,0,0,1,2-2.27A8.89,8.89,0,0,1,64,21c.67-.35,1.1-1.17,1.82-1.61a25.59,25.59,0,0,0,3.89-3.05c.72-.64,1.67-1,2.46-1.6A8.33,8.33,0,0,0,75,11.61c.56-1.21,1.17-2.4,1.84-3.56a13.55,13.55,0,0,1,1.88-2.83,27.83,27.83,0,0,1,3.09-2.37,11.42,11.42,0,0,1,3.43-1.49A20.08,20.08,0,0,1,88.16.82C89.58.56,91,.24,92.43.05a4,4,0,0,1,2.64.41,6.26,6.26,0,0,1,2.7,3.6,1.19,1.19,0,0,1,0,.47c-.13,1.32-.27,2.64-.4,4a3.44,3.44,0,0,0,0,.94,5.27,5.27,0,0,1-1.1,4.11c-.12.17-.07.45-.14.68-.17.6-.36,1.19-.53,1.79-.1.36-.17.73-.31,1.28-.81.44-1,1.26-.58,2.29a2.31,2.31,0,0,1-.06,1.13c-.07.38-.36.76-.32,1.12.19,1.88-.63,3.62-.72,5.46,0,.94-.67,1.78-.45,2.77,0,.12-.12.28-.19.42a31.75,31.75,0,0,1-2.28,4.25c-1.08,1.47-1,3.16-1.42,4.76a1.9,1.9,0,0,1-.16.57c-1.16,1.73-1.67,3.85-3.2,5.35-.08.08-.14.2-.22.28-.94.9-2.26,1-3.38,1.55A2.6,2.6,0,0,1,80,46.81a1.76,1.76,0,0,1-.65-.5c-.44-.78-.81-1.59-1.18-2.33.34-.55.65-1.09,1-1.61a4.48,4.48,0,0,1,.69-.95,20.74,20.74,0,0,1,2.7-2.24,5,5,0,0,0,2.14-2.26c.59-1.56,2-2.8,1.88-4.63a1.14,1.14,0,0,1,.17-.68c1-1.37,1.09-3.1,1.83-4.58a34.77,34.77,0,0,1,2-4.12c1-1.54,1.68-3.29,2.77-4.79a3.85,3.85,0,0,0,.32-1c.13-.37.26-.74.42-1.09.08-.18.34-.39.29-.49-.42-.94.44-1.9-.06-2.84a1,1,0,0,1,0-.79c.32-.6.07-1.16,0-1.73L93.76,7A9.36,9.36,0,0,1,93,5.89,2.76,2.76,0,0,0,88.84,5c-.33.28-.61.63-1,.89A14.88,14.88,0,0,1,86.21,7c-.8.43-1.63.79-2.44,1.21-.24.12-.56.32-.6.53-.16.72-.67.9-1.26,1a1.84,1.84,0,0,0-1.24,1,.9.9,0,0,1-1,.6.78.78,0,0,0-.64.19c-.53.73-1.39.86-2.11,1.22-.56.29-1.16.5-1.43,1.15,0,.11-.12.25-.2.28-1.07.31-1.33,1.5-2.21,2-.13.08-.3.21-.32.33a3.75,3.75,0,0,1-.94,1.69A13.69,13.69,0,0,0,71,20.23a5.36,5.36,0,0,1-1.3,1.8A8.26,8.26,0,0,0,68,23.88c-1,1.25-1.84,2.55-2.78,3.81-.3.41-.78.7-1,1.12a13.27,13.27,0,0,1-2.78,3.32,1.6,1.6,0,0,0-.32.49l-1.6,3c0,.07-.07.16-.13.2-1.09.62-1.23,1.76-1.6,2.79A8.17,8.17,0,0,1,57,40a36.94,36.94,0,0,0-2.21,3.72c-.64,1.4-1.77,2.65-1.65,4.34,0,.12,0,.28,0,.35-.84.91-.53,2.08-.47,3.07a5.41,5.41,0,0,0,1.88,4,6.46,6.46,0,0,0,2.06.83,10.84,10.84,0,0,0,5,.35c1.58-.25,3.2-.17,4.8-.32.81-.08,1.6-.42,2.41-.5a12.08,12.08,0,0,0,3.48-1,11,11,0,0,1,3.49-.3,13.13,13.13,0,0,1,1.63,0,4.08,4.08,0,0,1,2.7,1.73.63.63,0,0,1,.19.29c.16,1.8.53,3.62-.58,5.27a5.2,5.2,0,0,1-.73.71,2.72,2.72,0,0,0-.38.4c-.32.49-.6,1-.95,1.48C76.42,66,75.19,67.58,74,69.17c-.21.28-.35.61-.53.91s-.51.76-.74,1.15c-.66,1.17-1.5,2.21-2.24,3.32-.11.16-.14.41-.29.5a4.34,4.34,0,0,0-1.63,2.25c-.33.74-1.17,1.2-1.21,2.12,0,.09-.14.2-.24.25a3.27,3.27,0,0,0-1.41,1.81,2.37,2.37,0,0,1-.67.94,6.14,6.14,0,0,0-1.81,2.26c-1,1.78-2.12,3.49-3.15,5.25-.71,1.22-1.34,2.49-2,3.72-.27.47-.63.89-.94,1.35a5.73,5.73,0,0,0-.32.6s0,.09,0,.12a11.39,11.39,0,0,0-1.21,1.83c-.28.66-.42,1.35-1.1,1.74a1,1,0,0,0-.43.39c-.56,1.37-1.9,2.29-2.19,3.85-.11.59-.74,1.07-1.1,1.63a16,16,0,0,0-.8,1.42,18.43,18.43,0,0,0-.85,1.79,4.61,4.61,0,0,0-.19,1L47.73,111l-2.12,3.09c-.11.16-.29.32-.3.49a4.82,4.82,0,0,1-1.55,2.79,7,7,0,0,0-1.12,2.19,4.11,4.11,0,0,1-1.22,2,5.73,5.73,0,0,0-1.07,1.77c-.72,1.35-1.4,2.71-2.12,4.05-.31.59-.69,1.14-1,1.73s-.75,1.38-1.06,2.09A36.37,36.37,0,0,1,34,136a14.81,14.81,0,0,0-1.47,3.6,11.64,11.64,0,0,1-1.45,3.28,33,33,0,0,0-2.1,4.19,2.14,2.14,0,0,1-.51.64,1.41,1.41,0,0,0-.68,1.4c0,.2-.13.44-.24.65-.64,1.17-1.3,2.33-1.94,3.5a.78.78,0,0,0-.14.44c.17,1-.45,1.82-.69,2.72a3.29,3.29,0,0,1-.72,1c-.38.48-1,.83-.85,1.59a.29.29,0,0,1-.08.21c-1.24,1.2-1.38,3-2.28,4.35-.11.16-.16.39-.3.51a2,2,0,0,0-.77,1.57,4.64,4.64,0,0,1-1.08,2.06,2.78,2.78,0,0,0-.47,1.16,5.45,5.45,0,0,1-.68,1.73,14.61,14.61,0,0,0-1.36,3.49c-.33,1.15-.47,2.48-1.74,3.18-.2.11-.29.53-.33.82a2.58,2.58,0,0,1-.63,1.73s-.06.07-.06.1c.08,1.6-1.17,2.8-1.34,4.32a6.14,6.14,0,0,0,0,.89c-.8.22-1,.89-1.22,1.65a13.49,13.49,0,0,1-1,2.9c-.47.92-.12,1.76-.05,2.63,0,.16.47.43.7.41a15.83,15.83,0,0,0,1.6-.39c.94-.19,1.23-1.06,1.59-1.72a2.61,2.61,0,0,1,1.58-1.39c-.19-.88.28-1.29,1-1.56a1.82,1.82,0,0,0,1.18-1.25,5.8,5.8,0,0,1,1.08-1.62c.61-.86,1.73-1.23,2.06-2.32.07-.21.39-.37.61-.51.43-.28,1-.45,1.27-.84a3.56,3.56,0,0,1,1.73-1.66c.7-.3,1.1-1.24,1.77-1.7,1-.7,1.58-1.94,2.91-2.24a1.07,1.07,0,0,0,.93-1.08c0-.1.08-.28.15-.3,1-.21,1.14-1.34,1.9-1.85.34-.23.48-.77.71-1.17.86.53.84,1.47,0,2.83l1.05,2.32-1.22-.47c-.45.84-.79,1.85-2.14,1.78l.42,1.05a33,33,0,0,1-1.69,2.93,28.21,28.21,0,0,1-2,2.18,4.84,4.84,0,0,0-.59.87c-.55,1-1.08,2-1.64,3a4.94,4.94,0,0,1-1.42,1.55A7.31,7.31,0,0,0,22,190.9c-.63.89-1.21,1.8-1.81,2.71-.23.36-.44.74-.67,1.1-.1.16-.2.4-.35.45a1.35,1.35,0,0,0-1,1.66c-1,1.14-2.23,2-3.28,3A29.34,29.34,0,0,1,10.42,203a2,2,0,0,1-1.15.06,2.76,2.76,0,0,0-2.42.62c-.39.39-.77.33-1.27.09a24.62,24.62,0,0,0-3.17-1.27A1.93,1.93,0,0,1,1,201a14.11,14.11,0,0,0-.67-2A2.4,2.4,0,0,1,.15,197c.27-.66.08-1.48.72-2a1.62,1.62,0,0,1,.51-1.67c.12-.14,0-.45.05-.68s0-.55.09-.67c.57-.53.47-1.21.56-1.87a4.22,4.22,0,0,1,.53-1.26c.14-.27.55-.59.49-.75-.35-.87.33-1.27.67-1.86a4.14,4.14,0,0,0,.56-1.77,3.6,3.6,0,0,1,.42-1.29c.49-1.14,1.47-2.08,1.48-3.43,0-.22.2-.42.28-.64.27-.73.49-1.49.8-2.2a5.35,5.35,0,0,1,1-1.73,6.22,6.22,0,0,0,1.34-2.92,3.34,3.34,0,0,1,.31-.87A14.76,14.76,0,0,0,12,166.76c.16-.64.41-1.25.63-1.87a.33.33,0,0,1,.13-.19c1.07-.47,1.23-1.69,2-2.46.34-.35.35-1,.5-1.54a2.81,2.81,0,0,1,.28-.87,4.11,4.11,0,0,0,1.06-2.07c0-.24.37-.48.59-.68a2.53,2.53,0,0,0,1-1.69,2,2,0,0,1,.27-.77,8.72,8.72,0,0,0,1.27-2.87,3.94,3.94,0,0,1,1.17-1.87,7.17,7.17,0,0,0,1.49-2.72,55.84,55.84,0,0,1,2.5-5.33c.51-1,1.14-2,1.72-2.94l1.51-2.52c.12-.2.25-.4.36-.61l1.6-3.16c.5-1,1-2,1.51-2.92.18-.35.45-.65.64-1,.32-.58.61-1.18.93-1.76.15-.27.34-.52.5-.79.3-.54.59-1.09.88-1.63.07-.14.07-.38.17-.43.9-.42.75-1.27.9-2a2.21,2.21,0,0,1,.36-1c.76-.89,1.59-1.72,2.37-2.59a9.68,9.68,0,0,0,.82-1.1c.35-.52.7-1,1-1.58a32,32,0,0,0,2.13-3.5,31,31,0,0,1,2.12-3.81c.17-.31.49-.63.47-.93-.09-1.13.79-1.66,1.38-2.34.37-.42,1-.61,1.09-1.3a.12.12,0,0,1,.07-.09c1.19-.24,1.28-1.58,2.14-2.16a1.3,1.3,0,0,0,.55-1.24,1.72,1.72,0,0,1,.28-1.12,10.23,10.23,0,0,0,1.5-2.89,6.13,6.13,0,0,1,.94-1.35,2.29,2.29,0,0,0,.77-1.66c0-.27.28-.63.53-.85A2.61,2.61,0,0,0,55,91.21a5.32,5.32,0,0,1,1.84-3,3.17,3.17,0,0,0,.48-.65l.67-.91c.13-.18.38-.38.37-.55-.08-1,.69-1.65,1.21-2.35.89-1.2,1.88-2.31,2.8-3.48a2.34,2.34,0,0,0,.37-.74c.25-.77.52-1.5,1.4-1.77a.37.37,0,0,0,.18-.15c1.39-2.13,3.48-3.76,4.26-6.33a5,5,0,0,1,1.35-1.92A34.53,34.53,0,0,0,72,66.59c.15-.18.26-.43.44-.55,1.14-.75,1.34-2,1.65-3.17a2.63,2.63,0,0,0-.91-2.78,1.65,1.65,0,0,0-1.08-.27c-1.17.1-2.29.63-3.5.39a.47.47,0,0,0-.33.11c-1.26,1-2.85.79-4.29,1.1a44,44,0,0,1-5.08.73A8.32,8.32,0,0,1,56.2,62c-1.49-.36-2.94-.89-4.4-1.38a2.42,2.42,0,0,1-1.43-1.18,1.17,1.17,0,0,0-.59-.55c-1.49-.47-2.13-1.83-2.89-2.95a7.92,7.92,0,0,1-.69-2.85c-.12-.62-.19-1.25-.27-1.87a2.31,2.31,0,0,1,0-.7c.18-.95.36-1.9.59-2.84A12.7,12.7,0,0,1,47,46.22c.07-.18.24-.34.26-.52.09-1.44,1-2.56,1.54-3.8a1,1,0,0,1,.47-.49c.84-.33,1.07-1.14,1.42-1.82A2.12,2.12,0,0,0,50.72,38.61Z"/><path d="M256.15,16.66a5.62,5.62,0,0,1-.67,1.27c-.23.25-1.13-.18-1.46-.75a5.8,5.8,0,0,0-2.29-2,8.51,8.51,0,0,0-3.34-1.41,3.12,3.12,0,0,0-1.5.1,3.59,3.59,0,0,1-1.71.26,14.48,14.48,0,0,0-6.47,1.1,13.84,13.84,0,0,1-3.69.6c-.58.06-1.09,0-1.25.78,0,.18-.48.33-.76.41-.62.19-1.36.05-1.85.64-1.49,0-2.62,1-3.92,1.51a3,3,0,0,1-.81.07c-.23,0-.51,0-.67.11a20.21,20.21,0,0,1-4.1,1.92c-.57.26-1.12.56-1.68.84-1.68.84-3.53,1.34-5,2.59-.14.12-.37.31-.49.27-.84-.32-1.31.28-1.89.68a3.84,3.84,0,0,1-1.06.46,3.39,3.39,0,0,0-1.91,1c-.43.51-1.32.64-2,1-.43.2-.83.44-1.26.62s-1.09.41-1.62.64a12.3,12.3,0,0,0-1.34.69c-.27.16-.51.59-.73.56-1.33-.15-1.85,1-2.75,1.58-.6.36-1.08.93-1.88.9a.42.42,0,0,0-.32.14c-.61.87-1.54.59-2.37.7-.42.05-.75-.12-.82-.5a1.17,1.17,0,0,1,.2-.94c.92-.7,1.64-1.69,3-1.81a4.79,4.79,0,0,0,1.91-.88c1.5-.93,3-1.92,4.43-2.88a.9.9,0,0,1,.32-.15,7,7,0,0,0,3.6-2.07,2.83,2.83,0,0,1,1.18-.5,6.46,6.46,0,0,1,1.51-.26,2.66,2.66,0,0,0,1.75-.81A22.17,22.17,0,0,1,215,21.46a4.26,4.26,0,0,0,.86-.62,1.48,1.48,0,0,1,1.4-.55,4,4,0,0,0,2-.82,3.82,3.82,0,0,1,1.39-.56,3.84,3.84,0,0,0,1.74-.76,15.58,15.58,0,0,1,2.14-1.38,7.09,7.09,0,0,1,1.65-.86c1.25-.35,2.49-.74,3.74-1.08s2.5-.67,3.76-1a5.26,5.26,0,0,0,1.9-.88,6,6,0,0,1,2-.68,8.14,8.14,0,0,1,1.51-.26c1.91-.14,3.7-1,5.68-.88a14.48,14.48,0,0,0,2.2-.28,9.54,9.54,0,0,1,6.5,1.42A5.91,5.91,0,0,1,256.15,16.66Z"/><path d="M36.64,169.72l-2.2-.78.91-2.54a.48.48,0,0,1,.26-.09c.64,0,.75-.4.82-.93a5,5,0,0,1,2.05-3.63,4.28,4.28,0,0,0,.54-.59c.15-.16.29-.39.48-.44a1.91,1.91,0,0,0,1.64-2.16l1.82-1-.43-.95c.12-.09.21-.21.3-.21a2.07,2.07,0,0,0,1.48-.63,18.37,18.37,0,0,0,1.52-1.09,7.14,7.14,0,0,0,1.45-2c.51-1.15,1-2.25,2.43-2.58l-.28-.87c.48-.44.92-.88,1.39-1.28a1.91,1.91,0,0,1,.7-.42,3.56,3.56,0,0,0,2.18-1.86c.38-.67.86-.75,1.41-.25a1.75,1.75,0,0,1,.1,2.35c-.63.7-1.23,1.42-1.84,2.13a14.54,14.54,0,0,1-2.8,2.61,8.35,8.35,0,0,0-1.76,2c-.25.34-.43.57-.91.58-1,0-1,.13-.79,1a1,1,0,0,1-.18,1,22.26,22.26,0,0,0-2.82,4.44c-.49,1.13-1.59,1.59-2.56,2.16a1.87,1.87,0,0,0-.95,1,2.12,2.12,0,0,1-.67.79,2.14,2.14,0,0,0-.93,1.32.68.68,0,0,1-.84.62c-.66-.07-.89.22-1,.87A6,6,0,0,1,36.64,169.72Z"/><path d="M171.95,47.89c-.11.16-.16.32-.24.34a1.72,1.72,0,0,0-1.43,1.5c-.09.54-.66.72-1.16.89s-1,.45-1.5.63a2.92,2.92,0,0,1-1.12.25,1.39,1.39,0,0,0-1.46.79,1.46,1.46,0,0,1-1.3.87,1.12,1.12,0,0,0-.93.59c-.65,1-1.32,2-2.67,2.11-.3,0-.62.45-.82.77a4.37,4.37,0,0,1-1.87,1.67,4,4,0,0,0-2.15,2,1.17,1.17,0,0,1-1.12.89,2,2,0,0,0-1,.54,2.75,2.75,0,0,1-2.66.79c-.32-.08-.77.27-1.13.48s-.69.53-1.07.72a.66.66,0,0,1-.62-.1.84.84,0,0,1,0-.73,15.37,15.37,0,0,1,1-1.28,3.12,3.12,0,0,0,.55-.75.93.93,0,0,1,.77-.63,5.06,5.06,0,0,0,2.31-1.35,12.13,12.13,0,0,1,2.33-1.58,5.25,5.25,0,0,0,2.25-1.84,1.65,1.65,0,0,1,.83-.56c.44-.16.93-.21,1.38-.35.29-.09.72-.21.81-.42.32-.79,1.11-1,1.67-1.43a1.15,1.15,0,0,1,.74-.3,1.77,1.77,0,0,0,1.84-1.2,3.09,3.09,0,0,1,2.27-1.72,6.38,6.38,0,0,0,2.38-1.43c.15-.13.28-.28.42-.41C170.25,46.81,170.93,46.85,171.95,47.89Z"/><path d="M193.49,33c.71,1-.67,1.62-.09,2.49-.3.07-.46.17-.59.14-.71-.17-1.24,0-1.5.73a.8.8,0,0,1-.47.48c-1.37.25-2.21,1.31-3.27,2-.83.57-1.74,1-2.6,1.56a1.41,1.41,0,0,0-.57.51,1.63,1.63,0,0,1-1.26,1,3.7,3.7,0,0,0-2.93,2.36,10,10,0,0,0-3.81,1.07.89.89,0,0,1-.45.11c-.38,0-.9.14-1-.37,0-.22.31-.62.58-.75a1.84,1.84,0,0,0,1.11-1.14.68.68,0,0,1,.28-.36c1.86-1.09,3.49-2.52,5.51-3.37a14.06,14.06,0,0,0,2.94-1.91,2.32,2.32,0,0,1,2.13-.72.7.7,0,0,0,.87-.43,1,1,0,0,1,.93-.58,4,4,0,0,0,2.56-1.33C192.4,34,192.92,33.51,193.49,33Z"/><path d="M128.47,78c1.18-1.44,2.18-2.72,3.24-3.95a20.7,20.7,0,0,1,1.71-1.6c.09-.08.19-.21.28-.2,1.07.05,1.46-.71,1.89-1.48a3.07,3.07,0,0,1,.66-.63c.71.09,1.17,1,2,.48l-.25-.86c.23-.31.75-.35.92,0a2,2,0,0,1,.19,1,4.89,4.89,0,0,1-1.94,3.13A7.34,7.34,0,0,0,135.4,76a1.94,1.94,0,0,1-1.76,1.33c-.77,0-1.5.53-2.27.64A23.25,23.25,0,0,1,128.47,78Z"/><path d="M102.93,100.19c.2.81-.22,1.3-1.1,1.62a7.79,7.79,0,0,0-1.56,1c0,1.21-.19,1.38-1.45,1.32-.83,0-.83,0-1.11.85a6.83,6.83,0,0,1-.72,1.31c-.2.33-.42.65-.64,1s-.44.64-.68.95a6,6,0,0,0-.54.61c-.95,1.64-2.1,3-4.08,3.29a7.11,7.11,0,0,1-.42-1.59A2.46,2.46,0,0,1,91,109.2a6.63,6.63,0,0,1,1.29-1.49,1.38,1.38,0,0,1,1-.07c.83.15,1,.09,1.4-.65a3,3,0,0,0,.15-.32,4.64,4.64,0,0,1,1.54-2c.38-.34.5-1,.91-1.29s.94-.33,1.22-.83c.13-.24.31-.56.53-.61,1-.23,1.3-1.09,1.83-1.74a4,4,0,0,1,2.9-1.57c.29,0,.55-.33.87-.54.4.27.69.55.12,1S103.59,99.76,102.93,100.19Z"/><path d="M120.68,85.6c-.71,0-1,.35-1.2.9a2.38,2.38,0,0,1-.89,1.08,11.09,11.09,0,0,0-2.15,2,1.82,1.82,0,0,1-1.23.59,3.48,3.48,0,0,0-1.24.57,11.53,11.53,0,0,0-1,.66,2.53,2.53,0,0,0-.63.49c-.73,1-1,1.13-2.42.79a6.47,6.47,0,0,1,1.93-2,3.49,3.49,0,0,0,1.22-1.26,4.13,4.13,0,0,1,1.92-2c.23-.1.4-.37.58-.58a3,3,0,0,1,2-1.12,1.51,1.51,0,0,0,.8-.42C119.42,84.43,119.51,84.43,120.68,85.6Z"/><path d="M56.54,145.68c-.95-1.31-.91-1.37.13-2.31.43-.39.71-.94,1.12-1.36a1,1,0,0,1,.77-.31c.38.1.3.47.19.8a1.27,1.27,0,0,0-.11.68c.26.87-.23,1.33-.86,1.73Z"/><path d="M89.87,114l-2.14.38c-.39.07-.86.22-1-.24a1.26,1.26,0,0,1,.12-1.07,3.76,3.76,0,0,1,1.5-1.07,1.44,1.44,0,0,1,1.21.45A1.39,1.39,0,0,1,89.87,114Z"/><path d="M124.59,81.52l-.49,1.2c-.43,1.06-.43,1.06-1.54.61a6,6,0,0,1-.92.45.55.55,0,0,1-.49-.2c-.07-.13,0-.47.07-.52.76-.38,1.19-1.39,2.29-1.18C123.83,81.95,124.2,81.67,124.59,81.52Z"/><path d="M110.56,94a1.33,1.33,0,0,1-1.4.94,1,1,0,0,0-1,.41.91.91,0,0,1-.58.32.65.65,0,0,1-.47-.25.43.43,0,0,1,0-.42,3.69,3.69,0,0,1,1.22-.85A11.92,11.92,0,0,1,110.56,94Z"/><path d="M106.12,98c-1-.71-1.3-1.14-1.09-1.77.07-.22.34-.55.5-.54s.67.26.69.44A11.69,11.69,0,0,1,106.12,98Z"/><path d="M84.68,116.56c.39-.55.64-1.13,1.25-1.09.26,0,.49.46.82.81C86,116.6,85.49,117.12,84.68,116.56Z"/><path d="M33.82,170.63c.58-.82.68-.82,1.85,0C34.91,171.24,34.7,171.25,33.82,170.63Z"/><path d="M61.69,140.62c-1.15.09-1.55-.2-1.47-.85.05-.43.46-.63.74-.32A7.63,7.63,0,0,1,61.69,140.62Z"/><path d="M76,125.28l-.67-.16,0-.27.68.09Z"/><path d="M141.85,68.28l-.09.68-.25,0v-.68Z"/><path d="M140.53,68.9a1.49,1.49,0,0,1-.33.12c-.05,0-.16-.1-.16-.11a1.81,1.81,0,0,1,.17-.25Z"/><path d="M125.87,80.14l-.09.2-.23-.13c0-.05.09-.13.15-.15S125.81,80.11,125.87,80.14Z"/><path d="M61.67,138.53l-.13.12a.91.91,0,0,1-.08-.16s.05-.07.06-.07Z"/><path d="M120.13,84.14S120,84.05,120,84s.08-.09.12-.14l.13.14Z"/></g></g></svg>